OpenSim_Sub07_CSStiffKnee_RCS.mot
version=1
nRows=67
nColumns=11
inDegrees=no
endheader
time	Top_Thigh	Med_Thigh	Bot_Thigh	Top_Shank	2nd_Top_Shank	2nd_Bot_Shank	Bot_Shank	BNOx	BNOy	BNOZ
33.67000000	2039.43546180	1850.26826022	1424.98781744	1319.21893980	1365.18604740	1209.57049265	1172.38109153	366.73620769	-63.97790858	-149.96735185
33.68000000	2039.32014491	1855.51048285	1421.20773226	1319.50667872	1365.15004341	1209.69622849	1173.53862233	363.38747577	-63.93561539	-147.59390167
33.69000000	2039.30017445	1860.84108190	1417.44767086	1320.22899656	1365.10277188	1209.80778596	1174.76008325	359.12915549	-63.92500009	-143.94555664
33.70000000	2039.41812671	1866.10478409	1413.74035028	1321.36626508	1365.05438697	1209.90077812	1176.01271584	354.74710956	-63.94806200	-139.58065684
33.71000000	2039.71657798	1871.14631613	1410.11848757	1322.89885602	1365.01504281	1209.97081806	1177.26376167	351.02720067	-64.00680046	-135.05754232
33.72000000	2040.23724276	1875.81211785	1406.61442332	1324.80664572	1364.99474528	1210.01359985	1178.48079958	348.74407643	-64.10314717	-130.92829468
33.73000000	2040.98833364	1880.01522607	1403.24586437	1327.05025108	1364.99773617	1210.02796606	1179.64452117	348.23639759	-64.23640472	-127.50169816
33.74000000	2041.93454307	1883.75518945	1400.01150772	1329.56527031	1365.02076957	1210.01684930	1180.75265189	349.27646253	-64.40246038	-124.77048512
33.75000000	2043.03765494	1887.03733839	1396.90877991	1332.28562959	1365.06009916	1209.98345548	1181.80405563	351.59871871	-64.59697320	-122.70626563
33.76000000	2044.25945317	1889.86700329	1393.93510750	1335.14525509	1365.11197858	1209.93099055	1182.79759624	354.93761355	-64.81560218	-121.28064978
33.77000000	2045.56172166	1892.24951455	1391.08791703	1338.07807298	1365.17266151	1209.86266045	1183.73213761	359.02759451	-65.05400637	-120.46524765
33.78000000	2046.90624432	1894.19020257	1388.36463506	1341.01800944	1365.23840162	1209.78167110	1184.60654361	363.60310901	-65.30784478	-120.23166930
33.79000000	2048.25480506	1895.69439776	1385.76268812	1343.89899065	1365.30545256	1209.69122845	1185.41967811	368.39860452	-65.57277644	-120.55152482
33.80000000	2049.56918779	1896.76743049	1383.27950277	1346.65494276	1365.37006801	1209.59453842	1186.17040497	373.14852845	-65.84446039	-121.39642429
33.81000000	2050.81117641	1897.41463119	1380.91250556	1349.21979196	1365.42850164	1209.49480696	1186.85758808	377.58732826	-66.11855564	-122.73797778
33.82000000	2051.94255484	1897.64133024	1378.65912303	1351.52746443	1365.47700709	1209.39524000	1187.48009130	381.44945139	-66.39072123	-124.54779538
33.83000000	2052.92510697	1897.45285805	1376.51678173	1353.51188633	1365.51183805	1209.29904348	1188.03677850	384.46934528	-66.65661618	-126.79748715
33.84000000	2053.72061673	1896.85454502	1374.48290822	1355.10698384	1365.52924818	1209.20942332	1188.52651356	386.38145736	-66.91189952	-129.45866318
33.85000000	2054.29086802	1895.85172154	1372.55492903	1356.24668314	1365.52549113	1209.12958548	1188.94816035	386.92023509	-67.15223027	-132.50293354
33.86000000	2054.59764474	1894.44971801	1370.73027073	1356.86491039	1365.49682059	1209.06273587	1189.30058274	385.82012590	-67.37326747	-135.90190832
33.87000000	2054.60273080	1892.65386483	1369.00635985	1356.89559177	1365.43949021	1209.01208044	1189.58264460	382.81557723	-67.57067013	-139.62719759
33.88000000	2054.26791012	1890.46949241	1367.38062294	1356.27265345	1365.34975366	1208.98082512	1189.79320981	377.64103653	-67.74009729	-143.65041142
33.89000000	2053.55496659	1887.90193114	1365.85048656	1354.93002161	1365.22386461	1208.97217585	1189.93114223	370.03095124	-67.87720797	-147.94315990
33.90000000	2052.42568413	1884.95651142	1364.41337725	1352.80162243	1365.05807672	1208.98933856	1189.99530574	359.71976879	-67.97766121	-152.47705311
33.91000000	2050.84703746	1881.64134301	1363.06754117	1349.83014264	1364.84919010	1209.03504696	1189.98566205	346.47728281	-68.03761154	-157.21756841
33.92000000	2048.83958914	1877.99322870	1361.81968598	1346.04870987	1364.59964611	1209.10715956	1189.91350657	330.43818736	-68.05832915	-162.06687149
33.93000000	2046.45551574	1874.06589864	1360.68151110	1341.54380695	1364.31521419	1209.20065881	1189.79682100	311.95244815	-68.04410214	-166.88977751
33.94000000	2043.74740240	1869.91330176	1359.66478051	1336.40260635	1364.00170676	1209.31048998	1189.65367345	291.37281324	-67.99925762	-171.55061890
33.95000000	2040.76783429	1865.58938698	1358.78125815	1330.71228052	1363.66493626	1209.43159832	1189.50213202	269.05203072	-67.92812270	-175.91372809
33.96000000	2037.56939655	1861.14810324	1358.04270801	1324.56000192	1363.31071510	1209.55892909	1189.36026483	245.34284864	-67.83502451	-179.84343749
33.97000000	2034.20467435	1856.64339946	1357.46089403	1318.03294302	1362.94485574	1209.68742758	1189.24613998	220.59801507	-67.72429015	-183.20407954
33.98000000	2030.72625284	1852.12922457	1357.04758017	1311.21827626	1362.57317058	1209.81203902	1189.17782558	195.17027810	-67.60024673	-185.85998666
33.99000000	2027.18671716	1847.65952750	1356.81453041	1304.20317412	1362.20147208	1209.92770870	1189.17338975	169.41238577	-67.46722138	-187.67549127
34	2023.63865249	1843.28825718	1356.77350870	1297.07480904	1361.83557266	1210.02938188	1189.25090059	143.67708618	-67.32954121	-188.51492580
34.01000000	2020.13464397	1839.06936254	1356.93627901	1289.92035349	1361.48128474	1210.11200381	1189.42842621	118.31712737	-67.19153332	-188.24262267
34.02000000	2016.72727676	1835.05679251	1357.31460529	1282.82697992	1361.14442077	1210.17051977	1189.72403473	93.68525743	-67.05752483	-186.72291430
34.03000000	2013.46913602	1831.30449601	1357.92025151	1275.88186080	1360.83079317	1210.19987501	1190.15579424	70.13422443	-66.93184286	-183.82013313
34.04000000	2010.41280689	1827.86642197	1358.76498163	1269.17216859	1360.54621438	1210.19501481	1190.74177286	48.01677642	-66.81881453	-179.39861156
34.05000000	2007.61087454	1824.79651933	1359.86055962	1262.78507573	1360.29649682	1210.15088442	1191.50003871	27.68566149	-66.72276693	-173.32268204
34.06000000	2005.11592412	1822.14873700	1361.21874942	1256.80775469	1360.08745293	1210.06242911	1192.44865988	9.49362770	-66.64802720	-165.45667698
34.07000000	2002.97872078	1819.97512674	1362.84991930	1251.32465889	1359.92467654	1209.92467662	1193.60445050	-6.21728688	-66.59876473	-155.67198343
34.08000000	2001.20816934	1818.28410503	1364.73233610	1246.35770369	1359.80873363	1209.73455191	1194.95538293	-19.35137404	-66.57552187	-144.00224483
34.09000000	1999.77131435	1817.04045311	1366.81216525	1241.86626643	1359.73516235	1209.49087710	1196.46058777	-30.05925548	-66.57521385	-130.64336104
34.10000000	1998.63338032	1816.20705502	1369.03417648	1237.80700539	1359.69928223	1209.19255680	1198.07794163	-38.50226286	-66.59459822	-115.79828650
34.11000000	1997.75959178	1815.74679480	1371.34313950	1234.13657885	1359.69641281	1208.83849564	1199.76532112	-44.84172786	-66.63043251	-99.66997568
34.12000000	1997.11517325	1815.62255651	1373.68382405	1230.81164511	1359.72187364	1208.42759823	1201.48060285	-49.23898215	-66.67947427	-82.46138306
34.13000000	1996.66534925	1815.79722418	1376.00099985	1227.78886244	1359.77098426	1207.95876918	1203.18166343	-51.85535743	-66.73848105	-64.37546309
34.14000000	1996.37534430	1816.23368188	1378.23943663	1225.02488913	1359.83906419	1207.43091312	1204.82637947	-52.85218535	-66.80421037	-45.61517023
34.15000000	1996.21038292	1816.89481364	1380.34390409	1222.47638347	1359.92143299	1206.84293465	1206.37262759	-52.39079759	-66.87341980	-26.38345896
34.16000000	1996.13568963	1817.74350351	1382.25917198	1220.10000374	1360.01341020	1206.19373840	1207.77828438	-50.63252584	-66.94286687	-6.88328374
34.17000000	1996.11648896	1818.74263554	1383.93001002	1217.85240822	1360.11031535	1205.48222898	1209.00122648	-47.73870177	-67.00930912	12.68240098
34.18000000	1996.11800542	1819.85509377	1385.30118792	1215.69025520	1360.20746798	1204.70731102	1209.99933047	-43.87065705	-67.06950409	32.11064072
34.19000000	1996.10546354	1821.04376226	1386.31747541	1213.57020297	1360.30018763	1203.86788911	1210.73047298	-39.18972336	-67.12020933	51.19848102
34.20000000	1996.04408783	1822.27152504	1386.92364222	1211.44890981	1360.38379385	1202.96286789	1211.15253061	-33.85723238	-67.15818238	69.74296742
34.21000000	1995.89910282	1823.50126617	1387.06445807	1209.28303401	1360.45360617	1201.99115197	1211.22337998	-28.03451578	-67.18018078	87.54114545
34.22000000	1995.63573303	1824.69586968	1386.68469268	1207.02923384	1360.50494414	1200.95164596	1210.90089770	-21.88290524	-67.18296208	104.39006065
34.23000000	1995.21920298	1825.81821964	1385.72911578	1204.64416760	1360.53312729	1199.84325449	1210.14296037	-15.56373244	-67.16328381	120.08675855
34.24000000	1994.61473719	1826.83120008	1384.14249708	1202.08449357	1360.53347516	1198.66488216	1208.90744461	-9.23832904	-67.11790352	134.42828470
34.25000000	1993.78756018	1827.69769506	1381.86960633	1199.30687004	1360.50130729	1197.41543360	1207.15222703	-3.06802674	-67.04357876	147.21168461
34.26000000	1992.70289648	1828.38058861	1378.85521323	1196.26795528	1360.43194323	1196.09381342	1204.83518424	2.78584281	-66.93706706	158.23400384
34.27000000	1991.32597060	1828.84276479	1375.04408752	1192.92440759	1360.32070251	1194.69892624	1201.91419284	8.16194791	-66.79512596	167.29228791
34.28000000	1989.62200706	1829.04710764	1370.38099891	1189.23288525	1360.16290467	1193.22967667	1198.34712946	12.89895690	-66.61451302	174.18358236
34.29000000	1987.55662675	1828.95669001	1364.81176359	1185.15030520	1359.95388956	1191.68485853	1194.09215564	16.83596768	-66.39198655	178.70569592
34.30000000	1985.17947789	1828.57461179	1358.50404490	1180.68841891	1359.69330246	1190.03977492	1189.16784159	19.90315060	-66.12447155	180.81823226
34.31000000	1982.72768487	1827.99327841	1352.12047660	1175.98132092	1359.39039467	1188.21731810	1183.72753720	22.23387062	-65.80926484	180.84178099
34.32000000	1980.46373881	1827.31717896	1346.39066515	1171.17965961	1359.05571721	1186.13328879	1177.94282891	23.98898627	-65.44371357	179.14577550
34.33000000	1978.65013084	1826.65080251	1342.04421704	1166.43408334	1358.69982112	1183.70348771	1171.98530318	25.32935608	-65.02516486	176.09964916
